<?xml version="1.0" encoding="UTF-8" standalone="no"?>
<!-- Created with Inkscape (http://www.inkscape.org/) -->

<svg
   xmlns:dc="http://purl.org/dc/elements/1.1/"
   xmlns:cc="http://creativecommons.org/ns#"
   xmlns:rdf="http://www.w3.org/1999/02/22-rdf-syntax-ns#"
   xmlns:svg="http://www.w3.org/2000/svg"
   xmlns="http://www.w3.org/2000/svg"
   xmlns:xlink="http://www.w3.org/1999/xlink"
   xmlns:sodipodi="http://sodipodi.sourceforge.net/DTD/sodipodi-0.dtd"
   xmlns:inkscape="http://www.inkscape.org/namespaces/inkscape"
   width="6in"
   height="9in"
   viewBox="0 0 152.4 228.60001"
   version="1.1"
   id="svg8"
   inkscape:version="0.92.2 (5c3e80d, 2017-08-06)"
   sodipodi:docname="desktop-cover.svg"
   inkscape:export-filename="/home/yume/prods/books/alpha/pali-glossary/desktop-cover.png"
   inkscape:export-xdpi="133.33"
   inkscape:export-ydpi="133.33">
  <defs
     id="defs2">
    <clipPath
       clipPathUnits="userSpaceOnUse"
       id="clipPath30">
      <path
         d="M -0.58902,0 H 57.01074 V 56.79027 H -0.58902 Z"
         id="path28"
         inkscape:connector-curvature="0" />
    </clipPath>
  </defs>
  <sodipodi:namedview
     id="base"
     pagecolor="#ffffff"
     bordercolor="#666666"
     borderopacity="1.0"
     inkscape:pageopacity="0.0"
     inkscape:pageshadow="2"
     inkscape:zoom="0.58265187"
     inkscape:cx="75.131476"
     inkscape:cy="622.84612"
     inkscape:document-units="mm"
     inkscape:current-layer="layer1"
     showgrid="false"
     units="in"
     inkscape:snap-center="false"
     inkscape:snap-object-midpoints="true"
     inkscape:snap-bbox="true"
     inkscape:snap-bbox-midpoints="true"
     inkscape:snap-page="true"
     inkscape:window-width="1920"
     inkscape:window-height="1042"
     inkscape:window-x="0"
     inkscape:window-y="38"
     inkscape:window-maximized="0"
     showguides="false"
     inkscape:guide-bbox="true"
     inkscape:bbox-paths="false"
     inkscape:bbox-nodes="true"
     inkscape:snap-global="true">
    <sodipodi:guide
       position="76.199997,114.30001"
       orientation="1,0"
       id="guide916"
       inkscape:locked="false" />
  </sodipodi:namedview>
  <metadata
     id="metadata5">
    <rdf:RDF>
      <cc:Work
         rdf:about="">
        <dc:format>image/svg+xml</dc:format>
        <dc:type
           rdf:resource="http://purl.org/dc/dcmitype/StillImage" />
        <dc:title />
      </cc:Work>
    </rdf:RDF>
  </metadata>
  <g
     inkscape:groupmode="layer"
     id="layer2"
     inkscape:label="Layer 2"
     style="display:inline"
     sodipodi:insensitive="true">
    <image
       sodipodi:absref="/home/yume/prods/books/alpha/pali-glossary/assets/photos/92dpi-ebook-sRGB/rawpixel-com-589083-unsplash.jpg"
       xlink:href="photos/92dpi-ebook-sRGB/rawpixel-com-589083-unsplash.jpg"
       width="349.04178"
       height="232.88069"
       preserveAspectRatio="none"
       id="image889"
       x="-49.05246"
       y="-2.4908733" />
  </g>
  <g
     inkscape:groupmode="layer"
     id="layer4"
     inkscape:label="Layer 4"
     style="display:inline;opacity:0.12000002">
    <rect
       y="68.399986"
       x="0"
       height="228.59999"
       width="152.39999"
       id="rect836"
       style="display:inline;opacity:1;fill:#000000;fill-opacity:1;stroke:#000000;stroke-width:0.35277778;stroke-linejoin:bevel;stroke-miterlimit:4;stroke-dasharray:none;stroke-opacity:1"
       transform="translate(0,-68.399983)" />
  </g>
  <g
     inkscape:label="Layer 1"
     inkscape:groupmode="layer"
     id="layer1"
     transform="translate(0,-68.399983)"
     style="opacity:1">
    <rect
       style="opacity:1;fill:#327da0;fill-opacity:0;stroke:none;stroke-width:0.26499999;stroke-linejoin:bevel;stroke-miterlimit:4;stroke-dasharray:none;stroke-opacity:1"
       id="rect4491"
       width="152.39999"
       height="228.59999"
       x="0"
       y="68.399986" />
    <rect
       style="opacity:1;fill:none;fill-opacity:1;stroke:#d4aa00;stroke-width:2;stroke-linecap:round;stroke-linejoin:miter;stroke-miterlimit:4;stroke-dasharray:none;stroke-dashoffset:0;stroke-opacity:1"
       id="rect894"
       width="133.23109"
       height="198.88347"
       x="9.5844498"
       y="83.25824" />
    <text
       xml:space="preserve"
       style="font-style:normal;font-variant:normal;font-weight:500;font-stretch:normal;font-size:13.40555573px;line-height:17.19791603px;font-family:Spectral;-inkscape-font-specification:'Spectral, Medium';font-variant-ligatures:normal;font-variant-caps:normal;font-variant-numeric:normal;font-feature-settings:normal;text-align:center;letter-spacing:0px;word-spacing:0px;writing-mode:lr-tb;text-anchor:middle;fill:#fcca00;fill-opacity:1;stroke:none;stroke-width:0.26458332px;stroke-linecap:butt;stroke-linejoin:miter;stroke-opacity:1;"
       x="75.593498"
       y="133.83629"
       id="text898"><tspan
         sodipodi:role="line"
         id="tspan906"
         x="75.593498"
         y="133.83629">Illustrated Glossary</tspan></text>
    <text
       xml:space="preserve"
       style="font-style:italic;font-variant:normal;font-weight:500;font-stretch:normal;font-size:13.40555573px;line-height:5.29166651px;font-family:Spectral;-inkscape-font-specification:'Spectral, Medium Italic';font-variant-ligatures:normal;font-variant-caps:normal;font-variant-numeric:normal;font-feature-settings:normal;text-align:start;letter-spacing:0px;word-spacing:0px;writing-mode:lr-tb;text-anchor:start;fill:#fcca00;fill-opacity:1;stroke:none;stroke-width:0.26458332px;stroke-linecap:butt;stroke-linejoin:miter;stroke-opacity:1;"
       x="69.436577"
       y="149.718"
       id="text910"><tspan
         sodipodi:role="line"
         id="tspan908"
         x="69.436577"
         y="149.718"
         style="font-style:italic;font-variant:normal;font-weight:500;font-stretch:normal;font-size:13.40555573px;font-family:Spectral;-inkscape-font-specification:'Spectral, Medium Italic';font-variant-ligatures:normal;font-variant-caps:normal;font-variant-numeric:normal;font-feature-settings:normal;text-align:start;writing-mode:lr-tb;text-anchor:start;fill:#fcca00;fill-opacity:1;stroke:none;stroke-width:0.26458332px;">of</tspan></text>
    <text
       xml:space="preserve"
       style="font-style:normal;font-variant:normal;font-weight:500;font-stretch:normal;font-size:13.40555573px;line-height:5.29166651px;font-family:Spectral;-inkscape-font-specification:'Spectral, Medium';font-variant-ligatures:normal;font-variant-caps:normal;font-variant-numeric:normal;font-feature-settings:normal;text-align:start;letter-spacing:0px;word-spacing:0px;writing-mode:lr-tb;text-anchor:start;fill:#fcca00;fill-opacity:1;stroke:none;stroke-width:0.26458332px;stroke-linecap:butt;stroke-linejoin:miter;stroke-opacity:1;"
       x="43.986759"
       y="167.13466"
       id="text914"><tspan
         sodipodi:role="line"
         id="tspan918"
         x="43.986759"
         y="167.13466">PÄli Terms</tspan></text>
    <text
       xml:space="preserve"
       style="font-style:normal;font-variant:normal;font-weight:500;font-stretch:normal;font-size:8.81944466px;line-height:5.29166651px;font-family:Spectral;-inkscape-font-specification:'Spectral, Medium';font-variant-ligatures:normal;font-variant-caps:normal;font-variant-numeric:normal;font-feature-settings:normal;text-align:start;letter-spacing:0px;word-spacing:0px;writing-mode:lr-tb;text-anchor:start;fill:#fcca00;fill-opacity:1;stroke:none;stroke-width:0.26458332px;stroke-linecap:butt;stroke-linejoin:miter;stroke-opacity:1"
       x="41.160686"
       y="260.8324"
       id="text922"><tspan
         sodipodi:role="line"
         id="tspan1521"
         x="41.160686"
         y="260.8324">Venerable Varado</tspan></text>
    <g
       style="display:inline;opacity:1;fill:#ffcc00;fill-opacity:1;stroke:#ffcc00;stroke-opacity:1"
       id="g1549"
       transform="matrix(0.35277777,0,0,-0.35277777,44.853827,456.08886)">
      <path
         inkscape:connector-curvature="0"
         id="path24"
         style="fill:#ffcc00;fill-opacity:1;fill-rule:nonzero;stroke:#ffcc00;stroke-width:0.3985;stroke-linecap:butt;stroke-linejoin:miter;stroke-miterlimit:10;stroke-dasharray:none;stroke-opacity:1"
         d="m 96.049281,728.82963 c 2.74478,2.25989 6.617289,1.93623 8.233229,1.05043 1.61373,-0.88806 1.77499,-2.18037 2.17813,-2.01912 0.40428,0.16014 0.40428,1.93738 -1.61371,3.30921 -2.01912,1.37294 -5.165939,1.37294 -5.165939,1.37294 2.259889,1.61261 4.197259,2.82318 4.439149,5.16482 0.19261,1.86121 -0.64504,4.43801 -1.2912,4.43801 -0.64505,0 -0.16237,-1.29119 -0.80631,-4.11661 -0.64505,-2.8243 -4.440249,-5.32606 -7.747199,-8.87493 -2.35845,-2.53086 -3.84673,-5.19169 -4.45034,-6.38098 v 11.11241 c 0.26316,1.3707 0.80069,3.48391 1.86679,5.51645 1.77611,3.38983 3.85906,4.6743 4.91733,5.30927 1.06276,0.63832 1.74587,0.78726 1.45918,1.0661 -0.54761,0.53419 -3.33047,0.0414 -4.6004,-0.64392 -1.24191,-0.67079 -2.42114,-1.51068 -3.6429,-3.11881 v 3.53205 c 0.71335,0.20941 1.23856,0.86229 1.23856,1.64508 0,0.7839 -0.52521,1.43902 -1.23856,1.64955 v 8.558 c 0,0.26765 -0.21838,0.48489 -0.48604,0.48489 -0.26651,0 -0.48377,-0.21724 -0.48377,-0.48489 v -8.558 c -0.71447,-0.21053 -1.23967,-0.86565 -1.23967,-1.64955 0,-0.78279 0.5252,-1.43567 1.23967,-1.64508 v -3.7101 c -1.27329,1.7313 -2.4928,2.60032 -3.78179,3.29686 -1.26993,0.68536 -4.05389,1.17811 -4.60039,0.64392 -0.28669,-0.27884 0.39643,-0.42778 1.45918,-1.0661 1.05717,-0.63497 3.14121,-1.91944 4.91622,-5.30927 1.3024,-2.48385 1.82089,-5.09315 2.00678,-6.31379 v -10.59055 c -0.4905,1.00227 -2.02582,3.90385 -4.5892,6.65646 -3.30695,3.54887 -7.10217,6.05063 -7.74722,8.87493 -0.64503,2.82542 -0.16125,4.11661 -0.80741,4.11661 -0.64618,0 -1.4827,-2.5768 -1.29009,-4.43801 0.2419,-2.34164 2.17925,-3.55221 4.43915,-5.16482 0,0 -3.14795,0 -5.16594,-1.37294 -2.01801,-1.37183 -2.01801,-3.14907 -1.61484,-3.30921 0.40428,-0.16125 0.56441,1.13106 2.17926,2.01912 1.61484,0.8858 5.48732,1.20946 8.23212,-1.05043 2.3965,-1.97432 5.59372,-5.85688 6.36417,-9.17392 v -7.80776 c -0.71447,-0.2094 -1.23967,-0.86341 -1.23967,-1.64619 0,-0.95189 0.77157,-1.72343 1.72344,-1.72343 0.95301,0 1.7246,0.77154 1.7246,1.72343 0,0.78278 -0.52521,1.43679 -1.23856,1.64619 v 8.30498 c 0.95188,3.20057 3.94639,6.80094 6.22419,8.6767 z m -6.1346,-18.62787 c 0,-0.31692 -0.25757,-0.57336 -0.57563,-0.57336 -0.3169,0 -0.57449,0.25644 -0.57449,0.57336 0,0.31804 0.25759,0.57449 0.57449,0.57449 0.31806,0 0.57563,-0.25645 0.57563,-0.57449 z" />
      <g
         transform="translate(61.059881,708.47845)"
         clip-path="url(#clipPath30)"
         id="g26"
         style="fill:#ffcc00;fill-opacity:1;stroke:#ffcc00;stroke-opacity:1">
        <path
           inkscape:connector-curvature="0"
           id="path32"
           style="fill:#ffcc00;fill-opacity:1;fill-rule:nonzero;stroke:#ffcc00;stroke-width:0.3985;stroke-linecap:butt;stroke-linejoin:miter;stroke-miterlimit:10;stroke-dasharray:none;stroke-opacity:1"
           d="m 52.10762,29.44446 c -2.52417,4.05279 -6.56575,8.19182 -10.47295,12.19308 -2.32371,2.37857 -4.72807,4.84004 -6.7595,7.23319 -2.2274,2.62497 -3.47942,4.49402 -4.30699,5.73034 -0.97428,1.45694 -1.4659,2.18933 -2.35732,2.18933 -0.89252,0 -1.38301,-0.73239 -2.3573,-2.18933 C 25.02486,53.36475 23.77397,51.4957 21.54655,48.87073 19.514,46.47758 17.1108,44.01611 14.78708,41.63754 10.87987,37.63628 6.83716,33.49725 4.31412,29.44446 0.66336,23.58086 -0.58974,18.03195 0.25012,11.45163 0.96684,5.8276 5.23016,0.1331 11.98853,0.1331 c 6.10551,0 10.29042,3.49846 10.41137,8.70589 0.11759,5.09538 -3.24089,7.62739 -6.62286,7.87823 C 13.7064,16.87177 11.66602,16.17297 10.3177,14.8504 9.18217,13.73503 8.63007,12.27808 8.72078,10.64084 c 0.14221,-2.56 1.4099,-3.71914 2.56224,-4.2477 2.53201,-1.47264 4.65416,-0.40317 4.8826,1.42789 0.24077,1.93847 -1.08963,3.27 -2.18038,2.66415 -1.0885,-0.60585 0.24302,-3.14793 -0.96756,-3.32934 -0.65512,-0.09751 -1.21392,0.0683 -1.5958,0.24299 -0.81525,0.47596 -1.63053,1.42 -1.73465,3.29354 -0.07505,1.35391 0.37739,2.55217 1.30911,3.46484 1.13553,1.11539 2.9385,1.72572 4.70901,1.59468 2.7112,-0.20044 5.83675,-2.12549 5.72588,-6.88939 -0.10976,-4.71469 -3.81539,-7.7596 -9.4427,-7.7596 -6.19845,0 -10.1146,5.26783 -10.77868,10.47303 -0.80967,6.34291 0.40203,11.69586 3.92735,17.35787 2.4682,3.96432 6.47057,8.06303 10.34194,12.02847 2.33603,2.38978 4.75047,4.86242 6.80542,7.28133 2.26323,2.66753 3.53316,4.56345 4.37306,5.81882 0.83654,1.252 1.19153,1.7593 1.55324,1.7593 0.36173,0 0.71448,-0.5073 1.55214,-1.7593 0.83989,-1.25537 2.10982,-3.15129 4.37306,-5.81882 2.05495,-2.41891 4.46938,-4.89155 6.80654,-7.28133 C 44.81396,36.99683 48.81635,32.89812 51.28453,28.9338 54.80986,23.27179 56.0193,17.91884 55.21078,11.57593 54.54668,6.37073 50.63165,1.1029 44.43208,1.1029 c -5.6262,0 -9.33181,3.04491 -9.44268,7.7596 -0.10975,4.7639 3.01467,6.68895 5.72587,6.88939 1.77049,0.13104 3.57459,-0.47929 4.71013,-1.59468 0.9306,-0.91267 1.38416,-2.11093 1.30913,-3.46484 C 46.63037,8.81883 45.81512,7.87479 44.99986,7.39883 44.61798,7.22414 44.05806,7.05833 43.40405,7.15584 42.19348,7.33725 43.525,9.87933 42.43538,10.48518 41.34573,11.09103 40.0131,9.7595 40.25612,7.82103 c 0.22844,-1.83106 2.3517,-2.90053 4.8826,-1.42789 1.15346,0.5297 2.42003,1.6877 2.56225,4.2477 0.09072,1.63724 -0.46139,3.09419 -1.59692,4.20956 -1.34833,1.32257 -3.38872,2.02137 -5.46046,1.86682 C 37.26048,16.46638 33.90312,13.93437 34.02184,8.83899 34.14168,3.63156 38.3266,0.1331 44.43208,0.1331 c 6.75838,0 11.0217,5.6945 11.73842,11.31853 0.84102,6.58032 -0.41211,12.12923 -4.06288,17.99283 z" />
      </g>
    </g>
  </g>
  <g
     inkscape:groupmode="layer"
     id="layer3"
     inkscape:label="Layer 3"
     style="display:none;opacity:1"
     sodipodi:insensitive="true">
    <rect
       transform="translate(0,-68.399983)"
       style="opacity:1;fill:none;fill-opacity:1;stroke:#000000;stroke-width:0.35277778;stroke-linejoin:bevel;stroke-miterlimit:4;stroke-dasharray:none;stroke-opacity:1"
       id="rect4493"
       width="152.39999"
       height="228.59999"
       x="0"
       y="68.399986" />
  </g>
</svg>
